<svg xmlns="http://www.w3.org/2000/svg" width="805" height="679" viewBox="0 0 805 679"><g><g><path fill="#d8d8d8" d="M203.904 4.545c78.654 13.881 145.821 61.126 214.782 99.583 45.406 25.32 93.866 38.027 142.883 54.63 124.622 42.208 252.012 116.198 242.904 252.01-7.589 113.182-118.709 238.402-254.27 248.798-46.887 3.591-87.989-9.316-124.882-29.958-22.152-12.389-44.169-32.913-73.105-33.59-30.52-.711-61.688 20.222-87.909 33.689-39.022 20.057-80.13 40.992-124.112 47.016C39.285 690.547 9.86 622.408 16.62 533.97c3.288-42.993 12.778-85.196 18.64-127.853C43.577 345.622 30 293.303 14.439 235.1.578 183.265-8.725 125.604 15.944 77.91 43.937 23.794 110.065-2.134 171.026.832c11.196.544 22.142 1.817 32.878 3.713"/></g></g></svg>