<svg xmlns="http://www.w3.org/2000/svg" width="898" height="1185"><defs><linearGradient id="a" x1="317" x2="365" y1="762" y2="902" gradientUnits="userSpaceOnUse"><stop offset="0" stop-color="#9bb0da"/><stop offset=".49" stop-color="#617db6"/><stop offset=".99" stop-color="#183d8a"/><stop offset="1" stop-color="#183d8a"/></linearGradient><linearGradient id="b" x1="694" x2="644" y1="294" y2="434" gradientUnits="userSpaceOnUse"><stop offset="0" stop-color="#22dcfd"/><stop offset=".5" stop-color="#1c91e2"/><stop offset="1" stop-color="#5865b9"/></linearGradient></defs><image width="681" height="681" transform="translate(127 294)"/><path fill="#ff9c00" d="M376.438 808.018L-118.16 1295.45"/><path fill="none" stroke="#004aad" stroke-miterlimit="20" stroke-width="8" d="M376.438 808.018L-118.16 1295.45"/><path fill="url(#a)" d="M341 761.999c38.66 0 70 31.34 70 70s-31.34 70-70 70-70-31.34-70-70 31.34-70 70-70z"/><path fill="none" stroke="#ffc727" stroke-miterlimit="20" stroke-width="70" d="M341 761.999c38.66 0 70 31.34 70 70s-31.34 70-70 70-70-31.34-70-70 31.34-70 70-70z"/><path fill="#080b34" d="M895.074 3.353L591.379 302.646"/><path fill="none" stroke="#004aad" stroke-miterlimit="20" stroke-width="8" d="M895.074 3.353L591.379 302.646"/><path fill="url(#b)" d="M669 293.999c38.66 0 70 31.34 70 70s-31.34 70-70 70-70-31.34-70-70 31.34-70 70-70z"/><path fill="none" stroke="#ffc727" stroke-miterlimit="20" stroke-width="70" d="M669 293.999c38.66 0 70 31.34 70 70s-31.34 70-70 70-70-31.34-70-70 31.34-70 70-70z"/></svg>